<svg
  xmlns="http://www.w3.org/2000/svg"
  xmlns:xlink="http://www.w3.org/1999/xlink"
  viewBox="0 0 400 400"
  width="528"
  height="528"
  preserveAspectRatio="xMidYMid meet"
  style="width: 100%; height: 100%; transform: translate3d(0px, 0px, 0px); content-visibility: visible;"
>
  <defs>
    <clipPath id="__lottie_element_38">
      <rect width="400" height="400" x="0" y="0" />
    </clipPath>
    <g id="__lottie_element_39">
      <g transform="matrix(1,0,0,1,200,225.43299865722656)" opacity="1" style="display: block;">
        <g opacity="1" transform="matrix(1,0,0,1,0,0)">
          <path
            fill="rgb(255,255,255)"
            fill-opacity="1"
            d=" M-112.98899841308594,23.43000030517578 C-112.98899841308594,23.43000030517578 40.58000183105469,-65.23400115966797 40.58000183105469,-65.23400115966797 C43.1609992980957,-66.7239990234375 47.345001220703125,-66.7249984741211 49.92599868774414,-65.23500061035156 C49.92599868774414,-65.23500061035156 112.98899841308594,-28.826000213623047 112.98899841308594,-28.826000213623047 C115.56999969482422,-27.336000442504883 115.56999969482422,-24.91900062561035 112.98899841308594,-23.429000854492188 C112.98899841308594,-23.429000854492188 -40.58100128173828,65.23500061035156 -40.58100128173828,65.23500061035156 C-43.1619987487793,66.7249984741211 -47.34700012207031,66.7249984741211 -49.928001403808594,65.23500061035156 C-49.928001403808594,65.23500061035156 -112.98899841308594,28.826000213623047 -112.98899841308594,28.826000213623047 C-115.56999969482422,27.336000442504883 -115.56999969482422,24.920000076293945 -112.98899841308594,23.43000030517578z"
          />
        </g>
      </g>
    </g>
    <clipPath id="__lottie_element_43">
      <path d="M0,0 L400,0 L400,400 L0,400z" />
    </clipPath>
    <mask id="__lottie_element_39_1" mask-type="alpha">
      <use xmlns:ns1="http://www.w3.org/1999/xlink" ns1:href="#__lottie_element_39" />
    </mask>
  </defs>

  <!-- Todos tus elementos originales -->
  <g clip-path="url(#__lottie_element_38)">
    <g transform="matrix(1,0,0,1,0,0)" opacity="1" style="display: block;">
      <!-- 1) Primer path: relleno azul oscuro -->
      <g opacity="1" transform="matrix(1,0,0,1,199.99899291992188,234.5709991455078)">
        <path
          fill="rgb(67,106,201)"
          fill-opacity="1"
          d=" M118.39099884033203,-26.996999740600586 C118.39099884033203,-26.996999740600586 118.4020004272461,-27.0049991607666 118.4020004272461,-27.0049991607666 C118.4020004272461,-27.0049991607666 118.4020004272461,-36.05699920654297 118.4020004272461,-36.05699920654297 C118.4020004272461,-36.05699920654297 108.79000091552734,-34.09700012207031 108.79000091552734,-34.09700012207031 C108.79000091552734,-34.09700012207031 51.4379997253418,-67.20899963378906 51.4379997253418,-67.20899963378906 C48.77899932861328,-68.74400329589844 44.46799850463867,-68.74400329589844 41.808998107910156,-67.20899963378906 C41.808998107910156,-67.20899963378906 -83.39299774169922,5.077000141143799 -83.39299774169922,5.077000141143799 C-83.39299774169922,5.077000141143799 -103.86399841308594,9.25 -103.86399841308594,9.25 C-103.86399841308594,9.25 -118.4020004272461,17.780000686645508 -118.4020004272461,17.780000686645508 C-118.4020004272461,17.780000686645508 -118.39700317382812,26.816999435424805 -118.39700317382812,26.816999435424805 C-118.39700317382812,26.816999435424805 -118.38600158691406,26.822999954223633 -118.38600158691406,26.822999954223633 C-118.43000030517578,27.861000061035156 -117.77999877929688,28.9060001373291 -116.40799713134766,29.697999954223633 C-116.40799713134766,29.697999954223633 -51.4370002746582,67.20899963378906 -51.4370002746582,67.20899963378906 C-48.77799987792969,68.74400329589844 -44.46699905395508,68.74400329589844 -41.80799865722656,67.20899963378906 C-41.80799865722656,67.20899963378906 116.41000366210938,-24.138999938964844 116.41000366210938,-24.138999938964844 C117.77400207519531,-24.927000045776367 118.427001953125,-25.96500015258789 118.39099884033203,-26.996999740600586z"
        />
      </g>

      <!-- 2) Segundo path: relleno azul más claro (AGREGAMOS ANIMACIÓN DE COLOR) -->
      <g opacity="1" transform="matrix(1,0,0,1,200,225.43299865722656)">
        <path
          fill="rgb(81,116,229)"
          fill-opacity="1"
          d=" M-116.40899658203125,24.138999938964844 C-116.40899658203125,24.138999938964844 41.80799865722656,-67.20899963378906 41.80799865722656,-67.20899963378906 C44.46699905395508,-68.74400329589844 48.77799987792969,-68.74400329589844 51.4370002746582,-67.20899963378906 C51.4370002746582,-67.20899963378906 116.40899658203125,-29.697999954223633 116.40899658203125,-29.697999954223633 C119.06800079345703,-28.163000106811523 119.06800079345703,-25.673999786376953 116.40899658203125,-24.138999938964844 C116.40899658203125,-24.138999938964844 -41.808998107910156,67.20899963378906 -41.808998107910156,67.20899963378906 C-44.46799850463867,68.74400329589844 -48.779998779296875,68.74400329589844 -51.43899917602539,67.20899963378906 C-51.43899917602539,67.20899963378906 -116.40899658203125,29.697999954223633 -116.40899658203125,29.697999954223633 C-119.06800079345703,28.163000106811523 -119.06800079345703,25.673999786376953 -116.40899658203125,24.138999938964844z"
        >
          <!-- ANIMACIÓN DE COLOR -->
          <animate
            attributeName="fill"
            values="rgb(81,116,229);rgb(255,0,0);rgb(81,116,229)"
            dur="3s"
            repeatCount="indefinite"
          />
        </path>
      </g>

      <!-- 3) Tercer path: relleno blanco (AGREGAMOS ANIMACIÓN DE OPACIDAD) -->
      <g opacity="1" transform="matrix(1,0,0,1,200,225.43299865722656)">
        <path
          fill="rgb(255,255,255)"
          fill-opacity="1"
          d=" M-112.98899841308594,23.43000030517578 C-112.98899841308594,23.43000030517578 40.58000183105469,-65.23400115966797 40.58000183105469,-65.23400115966797 C43.1609992980957,-66.7239990234375 47.345001220703125,-66.7249984741211 49.92599868774414,-65.23500061035156 C49.92599868774414,-65.23500061035156 112.98899841308594,-28.826000213623047 112.98899841308594,-28.826000213623047 C115.56999969482422,-27.336000442504883 115.56999969482422,-24.91900062561035 112.98899841308594,-23.429000854492188 C112.98899841308594,-23.429000854492188 -40.58100128173828,65.23500061035156 -40.58100128173828,65.23500061035156 C-43.1619987487793,66.7249984741211 -47.34700012207031,66.7249984741211 -49.928001403808594,65.23500061035156 C-49.928001403808594,65.23500061035156 -112.98899841308594,28.826000213623047 -112.98899841308594,28.826000213623047 C-115.56999969482422,27.336000442504883 -115.56999969482422,24.920000076293945 -112.98899841308594,23.43000030517578z"
        >
          <!-- ANIMACIÓN DE OPACIDAD (destello) -->
          <animate
            attributeName="opacity"
            values="1;0.3;1"
            dur="2s"
            repeatCount="indefinite"
          />
        </path>
      </g>

      <!-- Otros pequeños detalles del SVG (icónos, sombras, etc) -->
      <g opacity="1" transform="matrix(1,0,0,1,115.2040023803711,277.90399169921875)">
        <path
          fill="rgb(29,74,147)"
          fill-opacity="1"
          d=" M3.5239999294281006,4.267000198364258 C3.5239999294281006,4.267000198364258 -5.456999778747559,-0.9179999828338623 -5.456999778747559,-0.9179999828338623 C-6.054999828338623,-1.2630000114440918 -6.423999786376953,-1.9019999504089355 -6.423999786376953,-2.5929999351501465 C-6.423999786376953,-2.5929999351501465 -6.423999786376953,-2.5929999351501465 -6.423999786376953,-2.5929999351501465 C-6.423999786376953,-4.081999778747559 -4.813000202178955,-5.011000156402588 -3.5239999294281006,-4.267000198364258 C-3.5239999294281006,-4.267000198364258 5.456999778747559,0.9179999828338623 5.456999778747559,0.9179999828338623 C6.054999828338623,1.2630000114440918 6.423999786376953,1.9019999504089355 6.423999786376953,2.5929999351501465 C6.423999786376953,2.5929999351501465 6.423999786376953,2.5929999351501465 6.423999786376953,2.5929999351501465 C6.423999786376953,4.081999778747559 4.813000202178955,5.011000156402588 3.5239999294281006,4.267000198364258z"
        />
      </g>
      <g opacity="1" transform="matrix(1,0,0,1,284.5220031738281,224.0590057373047)">
        <path
          fill="rgb(29,74,147)"
          fill-opacity="1"
          d=" M-2.9579999446868896,3.556999921798706 C-2.9579999446868896,3.556999921798706 4.580999851226807,-0.7649999856948853 4.580999851226807,-0.7649999856948853 C5.083000183105469,-1.0529999732971191 5.39300012588501,-1.5850000381469727 5.39300012588501,-2.1610000133514404 C5.39300012588501,-2.1610000133514404 5.39300012588501,-2.1610000133514404 5.39300012588501,-2.1610000133514404 C5.39300012588501,-3.4019999504089355 4.039999961853027,-4.177000045776367 2.9579999446868896,-3.556999921798706 C2.9579999446868896,-3.556999921798706 -4.580999851226807,0.7649999856948853 -4.580999851226807,0.7649999856948853 C-5.083000183105469,1.0529999732971191 -5.39300012588501,1.5850000381469727 -5.39300012588501,2.1610000133514404 C-5.39300012588501,2.1610000133514404 -5.39300012588501,2.1610000133514404 -5.39300012588501,2.1610000133514404 C-5.39300012588501,3.4019999504089355 -4.039999961853027,4.177000045776367 -2.9579999446868896,3.556999921798706z"
        />
      </g>
    </g>

    <!-- Figuras extra -->
    <g transform="matrix(0.6669989228248596,0,0,0.6669989228248596,261.4309997558594,186.9029998779297)" opacity="1" style="display: block;">
      <g opacity="1" transform="matrix(1,0,0,1,0,0)">
        <path
          fill="rgb(242,245,252)"
          fill-opacity="1"
          d=" M8.541999816894531,4.931000232696533 C3.0950000286102295,8.076000213623047 -5.145999908447266,8.418000221252441 -9.86299991607666,5.693999767303467 C-14.579999923706055,2.9700000286102295 -13.98900032043457,-1.7860000133514404 -8.541999816894531,-4.931000232696533 C-3.0950000286102295,-8.076000213623047 5.145999908447266,-8.418000221252441 9.86299991607666,-5.693999767303467 C14.579999923706055,-2.9700000286102295 13.98900032043457,1.7860000133514404 8.541999816894531,4.931000232696533z"
        />
      </g>
    </g>

    <g transform="matrix(0.4330011308193207,0,0,0.4330011308193207,148.2310791015625,105.97379302978516)" opacity="0.6" style="display: block;">
      <g opacity="1" transform="matrix(1,0,0,1,266.2359924316406,184.1300048828125)">
        <path
          fill="rgb(4,10,22)"
          fill-opacity="1"
          d=" M4.074999809265137,-2.3519999980926514 C5.698999881744385,-1.4140000343322754 5.190999984741211,0.39899998903274536 2.940999984741211,1.6979999542236328 C0.6909999847412109,2.996999979019165 -2.4509999752044678,3.2899999618530273 -4.074999809265137,2.3519999980926514 C-5.698999881744385,1.4140000343322754 -5.190999984741211,-0.39899998903274536 -2.940999984741211,-1.6979999542236328 C-0.6909999847412109,-2.996999979019165 2.4509999752044678,-3.2899999618530273 4.074999809265137,-2.3519999980926514z"
        />
      </g>
      <g opacity="1" transform="matrix(1,0,0,1,258.2969970703125,188.73199462890625)">
        <path
          fill="rgb(4,10,22)"
          fill-opacity="1"
          d=" M6.164999961853027,3.0769999027252197 C6.857999801635742,2.065999984741211 6.876999855041504,0.9010000228881836 6.193999767303467,-0.19900000095367432 C5.9770002365112305,-0.48100000619888306 5.565000057220459,-0.718999981880188 5.066999912261963,-0.7710000276565552 C4.071000099182129,-0.875 3.2799999713897705,-1.0980000495910645 2.5739998817443848,-1.5049999952316284 C1.8680000305175781,-1.9119999408721924 1.4839999675750732,-2.36899995803833 1.3029999732971191,-2.944000005722046 C1.1449999809265137,-3.191999912261963 0.8019999861717224,-3.4700000286102295 0.24500000476837158,-3.555999994277954 C-1.659999966621399,-3.950000047683716 -3.677999973297119,-3.938999891281128 -5.429999828338623,-3.5390000343322754 C-6.724999904632568,-3.2669999599456787 -7.0960001945495605,-2.305000066757202 -6.214000225067139,-1.7960000038146973 C-6.214000225067139,-1.7960000038146973 3.078000068664551,3.569000005722046 3.078000068664551,3.569000005722046 C3.9600000381469727,4.078000068664551 5.625999927520752,3.864000082015991 6.164999961853027,3.0769999027252197z"
        />
      </g>
    </g>
  </g>
</svg>
